<svg xmlns="http://www.w3.org/2000/svg" baseProfile="tiny" viewBox="0 0 145.16 56" overflow="visible" xmlns:v="https://vecta.io/nano"><path d="M137.568 21.9c-1 0-1.82-.81-1.82-1.83a1.83 1.83 0 0 1 1.83-1.82 1.83 1.83 0 0 1 1.82 1.82 1.83 1.83 0 0 1-1.83 1.83h0zm0-3.44c-.89 0-1.61.73-1.61 1.62s.73 1.61 1.62 1.61 1.61-.73 1.61-1.62-.71-1.61-1.61-1.62zm-.27 2.27c0 .12.14.15.25.15v.09h-.84v-.09c.12 0 .26-.04.26-.14v-1.52c0-.15-.03-.16-.24-.16v-.1h.88a1.13 1.13 0 0 1 .41.05.58.58 0 0 1 .28.21c.1.2.06.45-.1.62a.64.64 0 0 1-.38.15l.64.82a.2.2 0 0 0 .19.08v.09h-.5l-.7-.94h-.14l-.01.69h0zm0-.8c.12 0 .25-.01.38-.04.2-.04.35-.23.31-.43 0-.19-.12-.34-.3-.35h-.28c-.05 0-.1.03-.1.11l-.01.71h0z"/><path fill="#008999" d="M14.778 37.92c-6.34-8.12-4.89-19.83 3.22-26.18a18.65 18.65 0 0 1 24.55 1.4l-2.84 2.85c-17.6-13.68-33.15 5.57-27.01 18.19-4.95-16.88 14.45-26.21 24.62-15.73l-2.8 2.74c-12.28-10.42-26.06 3.01-21.23 13.74-2.74-15.14 13.43-17.81 18.94-11.48-1 1.17-2.73 2.91-2.73 2.91-8.4-7.41-19.69 1.29-14.72 11.56h0z"/><path fill="#003a76" d="M44.198 14.78c6.35 8.12 4.9 19.85-3.21 26.18a18.64 18.64 0 0 1-24.55-1.41l2.85-2.85c17.59 13.69 33.14-5.55 27-18.17 4.93 16.87-14.45 26.21-24.63 15.74l2.8-2.73c12.29 10.4 26.07-3.03 21.24-13.76 2.74 15.14-13.43 17.82-18.94 11.47 1-1.17 2.73-2.91 2.73-2.91 8.38 7.41 19.69-1.28 14.71-11.56h0z"/><path d="M61.228 23.73v-6.76h3.35v16.9h-3.35v-7.53h-3.84v7.53h-3.36V16.98h3.35v6.76l3.85-.01zm4.23 3.67c0-3.47.48-6.45 4.93-6.45s4.93 2.97 4.93 6.45c0 3.99-.58 6.79-4.93 6.79s-4.93-2.8-4.93-6.79zm6.5-.2c0-2.65-.12-3.98-1.56-3.98-1.43 0-1.56 1.34-1.56 3.98 0 3.89.31 4.72 1.56 4.72s1.56-.83 1.56-4.72zm4.22-8.11l3.39-1.59v3.61h1.76v2.19h-1.76v6.82c0 .97-.03 1.59 1.08 1.59.2.01.4-.01.6-.05v2.19c-.58.07-1.17.12-1.76.12-2.92 0-3.31-2.05-3.31-2.84V19.09h0z"/><path d="M86.308 34.19c-2.48.19-4.65-1.67-4.85-4.15-.04-.45 0-.9.1-1.34h3.17c0 1.62.24 2.97 2.08 2.97 1.15.07 2.16-.77 2.27-1.92 0-4.23-7.4-1.99-7.4-8.24 0-2.65 1.27-4.76 5.36-4.76 3.26 0 5.02 1.18 5.01 4.76h-3.26c0-1.27-.54-2.42-1.89-2.42-1.03-.01-1.86.81-1.87 1.84v.15c0 3.95 7.53 1.58 7.53 8.23 0 4.37-3.69 4.88-6.25 4.88h0zm10.14 3.07h-3.1V21.02h2.97v1.3h.05c.46-1.03 1.53-1.64 2.65-1.54 3.61 0 3.96 3.79 3.96 6.22 0 2.38-.14 7.1-3.89 7.1-1.08.15-2.13-.4-2.64-1.38v4.54h0zm3.31-9.89c0-2.36-.38-4-1.73-4-1.29 0-1.67 1.63-1.67 4 0 2.97.6 4.22 1.67 4.22 1.13-.02 1.73-1.25 1.73-4.22zm6.98-6.21v1.64h.05a3.16 3.16 0 0 1 3.41-1.89v2.97c-2.97-.2-3.29.89-3.29 3.09v6.95h-3.39V21.16h3.22zm7.45 12.75h-3.14v-12.8h3.14v12.8zm0-16.52v2.74h-3.14v-2.74h3.14zm4.28 5.11h.05a3.43 3.43 0 0 1 3.25-1.76c1.64-.02 3 1.28 3.02 2.92v.08 10.23h-3.17v-8.8c0-1.13-.39-1.88-1.47-1.88s-1.68.75-1.68 1.89v8.79h-3.24V21.22h3.24v1.28h0zm13.67 9.68c-.74.79-1.77 1.27-2.86 1.29-3.66 0-3.78-4.03-3.78-6.7 0-2.6.43-6.03 4-6.03 1.15 0 2.21.69 2.65 1.76h.04v-1.38h2.97v12.31c0 .81-.61 4.05-4.93 4.05-1.77 0-4.33-.48-4.4-3.35h3.06c.01.72.6 1.28 1.31 1.27.97.04 1.78-.73 1.82-1.69v-.04l.12-1.49h0zm-1.64-1.11c1.13 0 1.61-1.15 1.61-3.65 0-2.6-.48-4.13-1.63-4.13-1.18 0-1.61.92-1.61 4.52 0 1.09.12 3.26 1.63 3.26h0zm-58.93 10.31h2.6l-.1.53h-2.03l-.35 1.64h1.86l-.11.54h-1.86l-.38 1.79h2.07l-.11.53h-2.65l1.06-5.03zm3.7 3.55l.06.69h.01l.31-.7 1.22-2.09h.62l-2.25 3.68h-.22l-.7-3.68h.58l.37 2.1h0zm4.51 1.13a1.82 1.82 0 0 1-.59.33c-.23.08-.45.11-.69.11a1.12 1.12 0 0 1-.87-.33c-.21-.26-.31-.59-.29-.92a3.34 3.34 0 0 1 .16-1.05 2.46 2.46 0 0 1 .44-.79 1.78 1.78 0 0 1 .62-.5c.21-.11.45-.18.7-.18a1.19 1.19 0 0 1 .45.08c.11.04.23.1.31.19a.84.84 0 0 1 .18.28.88.88 0 0 1 .06.33c0 .34-.2.65-.5.8a2.69 2.69 0 0 1-1.44.29h-.18c-.07 0-.12 0-.2-.01-.03.09-.04.18-.04.26-.01.08-.01.14-.01.21a1.04 1.04 0 0 0 .18.64c.14.18.34.26.56.25a1.91 1.91 0 0 0 .58-.1 1.27 1.27 0 0 0 .4-.21l.17.32h0zm-.62-2.86a1.04 1.04 0 0 0-.69.26c-.21.23-.38.5-.44.82l.56-.01c.18-.01.36-.04.54-.08a1.06 1.06 0 0 0 .4-.19c.11-.09.16-.24.16-.38a.4.4 0 0 0-.03-.15c-.03-.06-.05-.11-.09-.15a.39.39 0 0 0-.16-.1.67.67 0 0 0-.25-.02h0zm3.75.1c-.04-.01-.09-.01-.14-.02-.05 0-.09-.01-.12-.01a.98.98 0 0 0-.63.23 1.37 1.37 0 0 0-.41.57l-.5 2.36h-.54l.76-3.6h.38v.61h.03a.92.92 0 0 1 .19-.25.93.93 0 0 1 .23-.21c.08-.06.18-.11.26-.15a.84.84 0 0 1 .31-.05c.11 0 .23.01.33.05l-.15.47h0zm1.14 1.85l.04.69h.04l.28-.7 1.19-2.32h.58l-1.69 3.21-.38.69c-.11.21-.24.4-.38.6-.11.16-.25.3-.4.43-.12.1-.28.15-.43.16-.08 0-.14 0-.21-.01-.05-.01-.11-.02-.16-.05l.18-.5c.05.02.11.02.18.02a.59.59 0 0 0 .41-.21 2.51 2.51 0 0 0 .46-.73l-.62-3.6h.58l.33 2.32h0zm6.52.03l-.09.53-.03.45v.14c0 .04 0 .09.01.12h-.36l-.1-.63h-.03c-.06.09-.14.18-.21.25a2.09 2.09 0 0 1-.29.23 1.53 1.53 0 0 1-.34.16 1.09 1.09 0 0 1-.36.06.77.77 0 0 1-.63-.29 1.53 1.53 0 0 1-.24-.93c0-.3.05-.59.12-.88s.2-.57.36-.82a1.88 1.88 0 0 1 .59-.6c.24-.16.53-.24.83-.24l.23.01c.06.01.12.01.18.02.05.01.1.02.15.04l.15.05.31-1.49h.54l-.79 3.82h0zm-1.6.87a.51.51 0 0 0 .31-.09 1.21 1.21 0 0 0 .3-.2 1.54 1.54 0 0 0 .25-.26l.18-.26.39-1.87a.96.96 0 0 0-.28-.11l-.41-.04c-.19 0-.38.06-.51.18-.16.12-.3.29-.39.48-.11.21-.2.44-.25.68-.06.26-.09.53-.09.79a1.18 1.18 0 0 0 .11.5c.08.12.23.2.39.2h0zm5.21-1.05c-.04.18-.06.36-.08.54l-.03.51v.2a1.15 1.15 0 0 0 .01.18h-.4l-.1-.63h-.03c-.06.09-.14.18-.21.25a2.01 2.01 0 0 1-.28.23c-.1.06-.21.12-.33.16s-.24.06-.36.06c-.58 0-.85-.38-.85-1.12 0-.31.04-.63.11-.94a3.2 3.2 0 0 1 .36-.85c.16-.25.38-.46.64-.63.29-.18.62-.26.94-.25a2.04 2.04 0 0 1 .49.05c.19.02.36.08.54.12l-.42 2.12h0zm-1.63 1.05c.11 0 .23-.02.33-.09a1.21 1.21 0 0 0 .3-.2c.18-.15.31-.33.43-.53l.4-1.94a1.17 1.17 0 0 0-.55-.1.94.94 0 0 0-.58.19 1.73 1.73 0 0 0-.43.5c-.12.23-.21.46-.26.72-.06.26-.09.53-.09.79 0 .16.04.33.11.46a.4.4 0 0 0 .34.2h0zm3.56-.9l.04.69h.04l.28-.7 1.19-2.32h.58l-1.69 3.21-.38.69c-.11.21-.24.4-.38.6-.11.16-.25.3-.4.43-.12.1-.28.15-.43.16-.08 0-.14 0-.21-.01-.05-.01-.11-.02-.16-.05l.18-.5c.05.02.11.02.18.02a.59.59 0 0 0 .41-.21c.19-.23.35-.46.46-.73l-.62-3.6h.58l.33 2.32h0zm5.68 1.27l.43-2.03.09-.45.03-.34c.01-.1-.01-.21-.07-.3-.06-.08-.15-.11-.25-.1a.71.71 0 0 0-.35.1c-.11.06-.23.14-.33.24a2.68 2.68 0 0 0-.28.3c-.07.09-.14.19-.2.29l-.48 2.31h-.54l.76-3.6h.38l-.04.61h.03c.07-.08.16-.15.25-.24.19-.18.4-.31.65-.4.14-.05.28-.08.43-.06a.45.45 0 0 1 .44.2 1.1 1.1 0 0 1 .11.57c.07-.1.16-.19.25-.28.1-.09.2-.18.31-.25.11-.08.23-.12.35-.18.12-.05.25-.06.38-.06a.61.61 0 0 1 .69.5c.01.08.01.15-.01.23 0 .25-.03.51-.09.78l-.45 2.16h-.54l.45-2.17c.03-.14.05-.26.06-.38.01-.1.03-.19.03-.29.01-.1-.03-.21-.07-.29-.06-.08-.16-.11-.26-.1a.67.67 0 0 0-.33.1c-.11.06-.23.15-.33.24l-.29.31-.2.31-.46 2.27h-.55 0zm6.28-1.42c-.04.18-.06.36-.07.54l-.03.51v.2a1.15 1.15 0 0 0 .01.18h-.4l-.1-.63h-.03a2.03 2.03 0 0 1-.49.48c-.1.06-.21.12-.33.16s-.24.06-.36.06c-.58 0-.85-.38-.85-1.12 0-.31.04-.63.11-.94.07-.3.2-.59.36-.85.16-.25.38-.46.64-.63.29-.18.61-.26.94-.25a2.04 2.04 0 0 1 .49.05c.19.02.36.08.54.12l-.43 2.12h0zm-1.64 1.05c.11 0 .23-.02.33-.09a1.21 1.21 0 0 0 .3-.2 1.54 1.54 0 0 0 .25-.26l.18-.26.4-1.94a1.17 1.17 0 0 0-.55-.1.94.94 0 0 0-.58.19 1.73 1.73 0 0 0-.43.5c-.12.23-.21.46-.26.72-.06.26-.09.53-.09.79 0 .16.04.33.11.46.08.11.21.19.34.19h0zm5.19-.87l-.09.53-.03.45v.14c0 .04.01.09.01.12h-.36l-.1-.63h-.03c-.06.09-.14.18-.21.25a2.09 2.09 0 0 1-.29.23 1.53 1.53 0 0 1-.34.16 1.09 1.09 0 0 1-.36.06.77.77 0 0 1-.63-.29 1.53 1.53 0 0 1-.24-.93c0-.3.05-.59.12-.88s.2-.57.36-.82a1.88 1.88 0 0 1 .59-.6c.24-.16.53-.24.83-.24l.23.01c.06.01.12.01.18.02.05.01.1.02.15.04l.15.05.31-1.49h.53l-.78 3.82h0zm-1.6.87a.51.51 0 0 0 .31-.09 1.21 1.21 0 0 0 .3-.2 1.54 1.54 0 0 0 .25-.26l.18-.26.4-1.87a.96.96 0 0 0-.28-.11l-.4-.04c-.19 0-.38.06-.51.18-.16.12-.3.29-.39.48-.11.21-.2.44-.25.68-.06.26-.09.53-.09.79a1.18 1.18 0 0 0 .11.5c.07.12.21.2.37.2h0zm5.05.01a1.82 1.82 0 0 1-.59.33c-.23.08-.45.11-.69.11a1.12 1.12 0 0 1-.87-.33c-.21-.26-.31-.59-.29-.92a3.34 3.34 0 0 1 .16-1.05 2.46 2.46 0 0 1 .44-.79 1.84 1.84 0 0 1 .61-.5c.21-.11.45-.18.7-.18a1.19 1.19 0 0 1 .45.08c.11.04.23.1.31.19a1.03 1.03 0 0 1 .18.28.88.88 0 0 1 .06.33c0 .34-.2.65-.5.8a2.69 2.69 0 0 1-1.44.29h-.18c-.07 0-.12 0-.2-.01-.03.09-.04.18-.04.26-.01.08-.01.14-.01.21a1.04 1.04 0 0 0 .18.64c.14.18.34.26.57.25a1.91 1.91 0 0 0 .58-.1 1.27 1.27 0 0 0 .4-.21l.17.32h0zm-.62-2.86a1.04 1.04 0 0 0-.69.26c-.23.23-.38.5-.44.82l.57-.01c.18-.01.36-.04.54-.08a1.25 1.25 0 0 0 .4-.2.49.49 0 0 0 .14-.51c-.01-.05-.05-.1-.09-.14-.05-.05-.1-.09-.16-.1a.51.51 0 0 0-.27-.04h0zm4.39-1.82h.54l-.44 2.06h.03c.07-.09.15-.18.23-.25a2.09 2.09 0 0 1 .29-.23 2.11 2.11 0 0 1 .34-.16c.12-.04.25-.06.39-.06.25-.01.48.1.61.3a1.43 1.43 0 0 1 .2.75 3.22 3.22 0 0 1-.18 1.15c-.1.31-.26.59-.48.84a1.96 1.96 0 0 1-.68.53 1.86 1.86 0 0 1-.78.18c-.23 0-.46-.02-.68-.09-.15-.04-.3-.1-.43-.2l1.04-4.82h0zm1.21 1.82a.91.91 0 0 0-.36.09c-.12.06-.25.14-.35.24a2.46 2.46 0 0 0-.31.33c-.09.1-.16.23-.23.34l-.36 1.68c.19.11.4.16.61.15a.87.87 0 0 0 .48-.14 1.39 1.39 0 0 0 .46-.41c.15-.2.26-.43.34-.67.09-.29.14-.59.14-.89.01-.19-.03-.38-.11-.54-.07-.12-.19-.18-.31-.18h0zm4.01 2.86a1.82 1.82 0 0 1-.59.33c-.23.08-.45.11-.69.11a1.12 1.12 0 0 1-.87-.33c-.21-.26-.31-.59-.29-.92a3.34 3.34 0 0 1 .16-1.05 2.46 2.46 0 0 1 .44-.79 1.84 1.84 0 0 1 .61-.5c.21-.11.45-.18.7-.18a1.19 1.19 0 0 1 .45.08c.11.04.23.1.31.19a1.03 1.03 0 0 1 .18.28.88.88 0 0 1 .06.33c0 .34-.2.65-.5.8a2.69 2.69 0 0 1-1.44.29h-.18c-.07 0-.12 0-.2-.01-.03.09-.04.18-.04.26-.01.08-.01.14-.01.21a1.04 1.04 0 0 0 .18.64c.14.18.34.26.57.25a1.91 1.91 0 0 0 .58-.1c.15-.05.29-.12.41-.21l.16.32h0zm-.61-2.86a1.04 1.04 0 0 0-.69.26c-.21.23-.38.5-.44.82l.57-.01c.18-.01.36-.04.54-.08a1.06 1.06 0 0 0 .4-.19c.11-.09.16-.24.16-.38a.4.4 0 0 0-.03-.15c-.01-.05-.05-.1-.09-.14a.39.39 0 0 0-.16-.1c-.07-.03-.16-.04-.26-.03h0zm1.67-.38h.53l.16-.72.58-.16-.19.88h.94l-.11.46h-.93l-.45 2.17c-.01.06-.03.11-.03.16 0 .04-.01.09-.01.12-.01.09.01.18.07.24.07.05.15.08.24.06.11 0 .21-.01.31-.05.1-.02.2-.08.29-.12v.44a1.64 1.64 0 0 1-.39.14c-.15.04-.3.05-.45.05-.44 0-.65-.2-.65-.6 0-.1.01-.2.04-.3l.49-2.32h-.54l.1-.45h0zm2.25 0h.53l.16-.72.58-.16-.19.88h.94l-.11.46h-.94l-.45 2.17c-.01.06-.03.11-.03.16-.01.04-.01.09-.01.12-.01.09.01.18.07.24.07.05.15.08.24.06.11 0 .21-.01.31-.05.1-.02.2-.08.29-.12v.44a1.64 1.64 0 0 1-.39.14c-.15.04-.3.05-.45.05-.44 0-.65-.2-.65-.6 0-.1.01-.2.04-.3l.49-2.32h-.54l.11-.45h0zm4.54 3.24a1.82 1.82 0 0 1-.59.33c-.23.08-.45.11-.69.11a1.12 1.12 0 0 1-.87-.33c-.21-.26-.31-.59-.29-.92a3.34 3.34 0 0 1 .16-1.05 2.46 2.46 0 0 1 .44-.79 1.84 1.84 0 0 1 .61-.5c.21-.11.45-.18.7-.18a1.19 1.19 0 0 1 .45.08c.11.04.23.1.31.19a1.03 1.03 0 0 1 .18.28c.04.1.05.2.05.31 0 .34-.2.65-.5.8a2.69 2.69 0 0 1-1.44.29h-.18c-.07 0-.12 0-.2-.01-.03.09-.04.18-.04.26-.01.08-.01.14-.01.21a1.04 1.04 0 0 0 .18.64c.14.18.34.26.57.25a1.91 1.91 0 0 0 .58-.1 1.27 1.27 0 0 0 .4-.21l.18.34h0zm-.61-2.86a1.04 1.04 0 0 0-.69.26c-.21.23-.38.5-.44.82l.57-.01c.18-.01.36-.04.54-.08a1.06 1.06 0 0 0 .4-.19c.11-.09.16-.24.16-.38a.4.4 0 0 0-.03-.15c-.01-.05-.05-.1-.09-.14a.39.39 0 0 0-.16-.1c-.07-.03-.16-.04-.26-.03h0zm3.75.1c-.04-.01-.09-.01-.14-.02-.05 0-.09-.01-.12-.01a.98.98 0 0 0-.63.23 1.37 1.37 0 0 0-.41.57l-.5 2.36h-.54l.76-3.6h.38v.61h.03a1.64 1.64 0 0 1 .19-.25.93.93 0 0 1 .23-.21c.07-.06.18-.11.26-.15a.84.84 0 0 1 .31-.05c.11 0 .23.01.33.05l-.15.47h0zm.34-1.36a1.35 1.35 0 0 1 .06-.35.64.64 0 0 1 .18-.25.74.74 0 0 1 .26-.15.84.84 0 0 1 .31-.05c.11 0 .21.01.31.05s.19.09.26.15c.07.08.14.15.18.25a1.03 1.03 0 0 1 .06.35 1.35 1.35 0 0 1-.06.35.64.64 0 0 1-.18.25c-.07.08-.16.12-.26.16s-.2.05-.31.05a.98.98 0 0 1-.33-.05.76.76 0 0 1-.26-.16c-.07-.07-.14-.15-.18-.25a1.02 1.02 0 0 1-.04-.35h0zm.19 0c0 .1.01.19.05.28.06.15.18.26.34.31.07.02.16.04.24.04.09 0 .18-.01.25-.04s.14-.06.2-.11c.05-.05.1-.12.12-.2a.71.71 0 0 0 .05-.29c0-.1-.01-.19-.05-.28-.03-.08-.07-.14-.14-.2-.06-.05-.12-.09-.2-.12-.07-.02-.16-.04-.24-.04-.09 0-.18.01-.25.04s-.14.06-.2.12c-.05.05-.1.12-.12.2a.74.74 0 0 0-.05.29h0zm.3-.4c.05-.01.09-.02.14-.02.06 0 .11-.01.18-.01s.15.01.23.05c.06.04.1.11.09.19 0 .06-.03.11-.06.15a.24.24 0 0 1-.15.06l.09.04.23.34h-.19l-.23-.33-.15-.05v.36h-.16l-.02-.78h0zm.28.1h-.06c-.01 0-.04 0-.05.01v.21h.11a.59.59 0 0 0 .14-.02c.04-.02.05-.06.05-.1-.01-.06-.07-.1-.19-.1h0z"/></svg>