<?xml version="1.0" encoding="UTF-8"?>
<svg xmlns="http://www.w3.org/2000/svg" xmlns:xlink="http://www.w3.org/1999/xlink" id="Group_5695" data-name="Group 5695" width="336" height="121.582" viewBox="0 0 336 121.582">
  <defs>
    <clipPath id="clip-path">
      <rect id="Rectangle_2227" data-name="Rectangle 2227" width="336" height="121.582" fill="none"/>
    </clipPath>
    <linearGradient id="linear-gradient" x1="1" y1="0.253" x2="0.5" y2="1" gradientUnits="objectBoundingBox">
      <stop offset="0" stop-color="#5eb3e4" stop-opacity="0.302"/>
      <stop offset="1" stop-color="#5eb3e4" stop-opacity="0"/>
    </linearGradient>
  </defs>
  <g id="Group_5714" data-name="Group 5714" clip-path="url(#clip-path)">
    <path id="Path_4552" data-name="Path 4552" d="M52.647,0,0,30.4V91.187l52.647,30.4,52.647-30.393v-60.8Z" fill="url(#linear-gradient)"/>
    <path id="Path_4553" data-name="Path 4553" d="M52.647,0,0,30.4V91.187l52.647,30.4,52.647-30.393v-60.8Z" transform="translate(115.353)" fill="url(#linear-gradient)"/>
    <path id="Path_4554" data-name="Path 4554" d="M52.647,0,0,30.4V91.187l52.647,30.4,52.647-30.393v-60.8Z" transform="translate(230.707)" fill="url(#linear-gradient)"/>
    <path id="Path_4484" data-name="Path 4484" d="M1.766,90.168V31.415L52.647,2.041l50.881,29.373V90.168L52.647,119.543ZM52.647,0,0,30.4V91.187l52.647,30.4,52.647-30.393v-60.8Z" fill="#5eb3e4"/>
    <g id="Group_5713" data-name="Group 5713">
      <g id="Group_5712" data-name="Group 5712" clip-path="url(#clip-path)">
        <path id="Path_4485" data-name="Path 4485" d="M117.1,90.168V31.415L167.979,2.041,218.86,31.413V90.168l-50.881,29.374L117.1,90.168M167.979,0,115.332,30.394V91.187l52.647,30.4,52.647-30.393v-60.8Z" fill="#5eb3e4"/>
        <path id="Path_4486" data-name="Path 4486" d="M232.472,90.168V31.415L283.353,2.041l50.881,29.372V90.168l-50.881,29.374L232.472,90.168M283.353,0,230.706,30.394V91.187l52.647,30.4L336,91.189v-60.8Z" fill="#5eb3e4"/>
        <path id="Path_4487" data-name="Path 4487" d="M38.617,53.73H35.291v3.806h-1.78V48.442h1.78v3.7h3.326v-3.7H40.4v9.094h-1.78Z" fill="#6e6e71"/>
        <path id="Path_4488" data-name="Path 4488" d="M41.618,54.289a3.656,3.656,0,0,1,.806-2.54,2.9,2.9,0,0,1,2.26-.89,3.381,3.381,0,0,1,1.351.247,2.528,2.528,0,0,1,.949.695,2.987,2.987,0,0,1,.565,1.085,4.96,4.96,0,0,1,.188,1.4,3.674,3.674,0,0,1-.8,2.54,2.871,2.871,0,0,1-2.254.89,3.384,3.384,0,0,1-1.351-.247,2.578,2.578,0,0,1-.954-.695,2.909,2.909,0,0,1-.572-1.085,4.914,4.914,0,0,1-.189-1.4m1.741,0a3.771,3.771,0,0,0,.078.792,2.2,2.2,0,0,0,.234.637,1.129,1.129,0,0,0,.409.422,1.164,1.164,0,0,0,.6.149,1.11,1.11,0,0,0,.988-.48A2.774,2.774,0,0,0,46,54.289a3.058,3.058,0,0,0-.3-1.449,1.058,1.058,0,0,0-1.014-.551,1.146,1.146,0,0,0-.974.468,2.591,2.591,0,0,0-.351,1.532" fill="#6e6e71"/>
        <path id="Path_4489" data-name="Path 4489" d="M50.53,51.041V54.73a2.566,2.566,0,0,0,.188,1.143.756.756,0,0,0,.734.351,1.143,1.143,0,0,0,.8-.286,1.769,1.769,0,0,0,.475-.7v-4.2h1.688v4.521a10.29,10.29,0,0,0,.052,1.046,6.411,6.411,0,0,0,.156.929H53.349l-.3-.962H53a2.423,2.423,0,0,1-.831.819,2.383,2.383,0,0,1-1.261.325,2.8,2.8,0,0,1-.883-.13,1.453,1.453,0,0,1-.65-.429,2.014,2.014,0,0,1-.4-.806,4.983,4.983,0,0,1-.136-1.273v-4.04Z" fill="#6e6e71"/>
        <path id="Path_4490" data-name="Path 4490" d="M59.481,52.625a2.232,2.232,0,0,0-.727-.142,1.2,1.2,0,0,0-.761.239,1.164,1.164,0,0,0-.409.618v4.2H55.9V51.041h1.311l.195.857h.052a1.771,1.771,0,0,1,.6-.74,1.51,1.51,0,0,1,.883-.26,2.441,2.441,0,0,1,.767.143Z" fill="#6e6e71"/>
        <path id="Path_4491" data-name="Path 4491" d="M62.2,55.354a1.431,1.431,0,0,0,.116.663.4.4,0,0,0,.377.207,1.572,1.572,0,0,0,.676-.143l.181,1.325a3.109,3.109,0,0,1-.636.208,3.744,3.744,0,0,1-.883.1,1.656,1.656,0,0,1-1.131-.344,1.455,1.455,0,0,1-.389-1.138V48.442H62.2Z" fill="#6e6e71"/>
        <path id="Path_4492" data-name="Path 4492" d="M66.639,54.692l.234,1.014h.078l.169-1.028.987-3.637h1.741L67.873,56.9c-.164.486-.323.929-.473,1.332a6.153,6.153,0,0,1-.5,1.046,2.37,2.37,0,0,1-.6.682,1.311,1.311,0,0,1-.786.24,2.26,2.26,0,0,1-1.078-.22l.311-1.352a1.042,1.042,0,0,0,.39.077.852.852,0,0,0,.578-.252,1.723,1.723,0,0,0,.422-.916l-2.715-6.5h2.027Z" fill="#6e6e71"/>
        <path id="Path_4493" data-name="Path 4493" d="M18.98,69.111l.168,1.613H19.2l.181-1.638,1.586-5.053h1.169L23.7,69.111l.182,1.613h.052l.2-1.638,1.1-5.053h1.806l-2.507,9.158H23.332l-1.624-5.053-.221-1.39h-.065l-.221,1.4L19.59,73.191H18.33l-2.494-9.158h1.935Z" fill="#6e6e71"/>
        <path id="Path_4494" data-name="Path 4494" d="M26.97,67.008a5.622,5.622,0,0,1,1.234-.37A7.794,7.794,0,0,1,29.7,66.5a3.35,3.35,0,0,1,1.131.164,1.617,1.617,0,0,1,1.1,1.175,3.636,3.636,0,0,1,.111.936q0,.571-.039,1.148c-.026.386-.041.767-.046,1.139s.007.733.033,1.082a4.091,4.091,0,0,0,.195,1H30.8l-.273-.9h-.065a2.319,2.319,0,0,1-.721.694,2.171,2.171,0,0,1-1.189.293,2.335,2.335,0,0,1-.818-.135,1.8,1.8,0,0,1-.624-.392,1.758,1.758,0,0,1-.4-.6,2,2,0,0,1-.144-.775,1.806,1.806,0,0,1,.267-1.007,1.932,1.932,0,0,1,.766-.663,3.8,3.8,0,0,1,1.195-.349,8.471,8.471,0,0,1,1.553-.059,1.691,1.691,0,0,0-.1-1.046c-.13-.212-.42-.319-.871-.319a6.14,6.14,0,0,0-1.071.1,3.982,3.982,0,0,0-.929.274Zm2.144,4.832a1.294,1.294,0,0,0,.805-.228,1.577,1.577,0,0,0,.442-.485v-.846a4.8,4.8,0,0,0-.773-.014,3.055,3.055,0,0,0-.656.118,1.082,1.082,0,0,0-.455.26.583.583,0,0,0-.169.428.744.744,0,0,0,.215.567.837.837,0,0,0,.591.2" fill="#6e6e71"/>
        <path id="Path_4495" data-name="Path 4495" d="M32.634,66.63h.9V65.409l1.688-.479v1.7h1.586v1.429H35.219v2.5a2.462,2.462,0,0,0,.137.967.515.515,0,0,0,.513.293,1.6,1.6,0,0,0,.448-.054,2.8,2.8,0,0,0,.423-.155l.3,1.3a4.19,4.19,0,0,1-.82.285,3.841,3.841,0,0,1-.948.118,1.706,1.706,0,0,1-1.318-.462,2.215,2.215,0,0,1-.422-1.514V68.059h-.9Z" fill="#6e6e71"/>
        <path id="Path_4496" data-name="Path 4496" d="M42.832,72.568a3.312,3.312,0,0,1-1.058.527,4.7,4.7,0,0,1-1.423.214,2.765,2.765,0,0,1-2.3-.916,3.943,3.943,0,0,1-.727-2.515,3.6,3.6,0,0,1,.818-2.571,3.025,3.025,0,0,1,2.3-.857,3.553,3.553,0,0,1,.961.129,2.251,2.251,0,0,1,.832.429,2.117,2.117,0,0,1,.584.806,3.133,3.133,0,0,1,.221,1.26,5.576,5.576,0,0,1-.032.584c-.022.209-.055.423-.1.648h-3.9a1.9,1.9,0,0,0,.422,1.235,1.62,1.62,0,0,0,1.241.418,2.665,2.665,0,0,0,.954-.164,2.577,2.577,0,0,0,.644-.333ZM40.416,67.8a1.181,1.181,0,0,0-.981.4,1.941,1.941,0,0,0-.383,1.057h2.416a1.626,1.626,0,0,0-.214-1.077.957.957,0,0,0-.838-.378" fill="#6e6e71"/>
        <path id="Path_4497" data-name="Path 4497" d="M47.679,68.214a2.255,2.255,0,0,0-.727-.141,1.188,1.188,0,0,0-.761.24,1.158,1.158,0,0,0-.409.617v4.195H44.094v-6.5H45.4l.195.857h.052a1.768,1.768,0,0,1,.6-.739,1.5,1.5,0,0,1,.883-.259,2.433,2.433,0,0,1,.767.141Z" fill="#6e6e71"/>
        <path id="Path_4498" data-name="Path 4498" d="M57.682,65.617H55.031v7.508h-1.78V65.617H50.589V64.033h7.093Z" fill="#6e6e71"/>
        <path id="Path_4499" data-name="Path 4499" d="M61.955,72.568A3.308,3.308,0,0,1,60.9,73.1a4.686,4.686,0,0,1-1.422.214,2.766,2.766,0,0,1-2.3-.916,3.943,3.943,0,0,1-.727-2.515,3.6,3.6,0,0,1,.818-2.571,3.026,3.026,0,0,1,2.3-.857,3.56,3.56,0,0,1,.962.129,2.247,2.247,0,0,1,.831.429,2.13,2.13,0,0,1,.585.806,3.151,3.151,0,0,1,.22,1.26,5.846,5.846,0,0,1-.031.584c-.022.209-.056.423-.1.648h-3.9a1.909,1.909,0,0,0,.422,1.235,1.622,1.622,0,0,0,1.241.418,2.665,2.665,0,0,0,.954-.164,2.577,2.577,0,0,0,.644-.333ZM59.54,67.8a1.183,1.183,0,0,0-.982.4,1.949,1.949,0,0,0-.383,1.057h2.416a1.62,1.62,0,0,0-.214-1.077.955.955,0,0,0-.837-.378" fill="#6e6e71"/>
        <path id="Path_4500" data-name="Path 4500" d="M65.906,71.332a.482.482,0,0,0-.221-.414,2.492,2.492,0,0,0-.545-.285c-.217-.088-.455-.178-.715-.268a2.646,2.646,0,0,1-.715-.378,2.054,2.054,0,0,1-.545-.609,2.173,2.173,0,0,1,.351-2.424,2.417,2.417,0,0,1,1.649-.505A5.312,5.312,0,0,1,66.5,66.6a3.89,3.89,0,0,1,.935.35l-.377,1.223c-.2-.079-.45-.161-.754-.248a3.321,3.321,0,0,0-.921-.13q-.754,0-.754.584a.431.431,0,0,0,.221.378,2.857,2.857,0,0,0,.545.265c.217.084.455.172.715.268a3.2,3.2,0,0,1,.715.369,1.952,1.952,0,0,1,.545.592,1.784,1.784,0,0,1,.221.936,1.975,1.975,0,0,1-.63,1.551,2.755,2.755,0,0,1-1.891.566,4.685,4.685,0,0,1-1.292-.174,3.967,3.967,0,0,1-.981-.412l.468-1.26a4.443,4.443,0,0,0,.792.332,3.236,3.236,0,0,0,1.013.164,1.113,1.113,0,0,0,.6-.144.525.525,0,0,0,.228-.482" fill="#6e6e71"/>
        <path id="Path_4501" data-name="Path 4501" d="M67.88,66.63h.9V65.409l1.688-.479v1.7h1.586v1.429H70.465v2.5a2.462,2.462,0,0,0,.137.967.515.515,0,0,0,.513.293,1.6,1.6,0,0,0,.448-.054,2.8,2.8,0,0,0,.423-.155l.3,1.3a4.19,4.19,0,0,1-.82.285,3.841,3.841,0,0,1-.948.118,1.706,1.706,0,0,1-1.318-.462,2.215,2.215,0,0,1-.422-1.514V68.059h-.9Z" fill="#6e6e71"/>
        <path id="Path_4502" data-name="Path 4502" d="M72.856,64.8a.859.859,0,0,1,.279-.646,1.075,1.075,0,0,1,.773-.265,1.175,1.175,0,0,1,.8.265.825.825,0,0,1,.305.646.785.785,0,0,1-.305.629,1.211,1.211,0,0,1-.8.253,1.106,1.106,0,0,1-.773-.253.816.816,0,0,1-.279-.629m.247,1.83h1.689v6.5H73.1Z" fill="#6e6e71"/>
        <path id="Path_4503" data-name="Path 4503" d="M80.274,73.125V69.437a2.171,2.171,0,0,0-.228-1.144.847.847,0,0,0-.772-.35,1.215,1.215,0,0,0-.812.279,1.544,1.544,0,0,0-.474.694v4.209H76.3v-6.5h1.338l.195.857h.051a2.847,2.847,0,0,1,.793-.727,2.367,2.367,0,0,1,1.273-.31,2.622,2.622,0,0,1,.858.129,1.463,1.463,0,0,1,.636.429,1.967,1.967,0,0,1,.39.812,5.271,5.271,0,0,1,.13,1.266v4.04Z" fill="#6e6e71"/>
        <path id="Path_4504" data-name="Path 4504" d="M88.731,73.125a2.624,2.624,0,0,1-.766,2.086,3.155,3.155,0,0,1-2.143.669,6.558,6.558,0,0,1-1.475-.13,3.694,3.694,0,0,1-.812-.274l.35-1.336c.2.076.431.155.695.234a3.6,3.6,0,0,0,.981.116,1.506,1.506,0,0,0,1.2-.384,1.625,1.625,0,0,0,.318-1.071V72.62H87.03a1.892,1.892,0,0,1-1.612.609,2.248,2.248,0,0,1-1.877-.778,3.93,3.93,0,0,1-.617-2.444,3.745,3.745,0,0,1,.832-2.636,3.131,3.131,0,0,1,2.416-.9,8.748,8.748,0,0,1,1.488.116,6.335,6.335,0,0,1,1.071.273Zm-2.858-1.246a1.166,1.166,0,0,0,.761-.22A1.414,1.414,0,0,0,87.042,71V68.073a2.585,2.585,0,0,0-1-.169,1.186,1.186,0,0,0-1.013.487,2.612,2.612,0,0,0-.364,1.551,2.726,2.726,0,0,0,.312,1.444,1,1,0,0,0,.9.493" fill="#6e6e71"/>
        <path id="Path_4505" data-name="Path 4505" d="M127.157,48.443h5.391v1.584h-3.611v2.118h3.286v1.586h-3.286v2.221h3.676v1.585h-5.456Z" fill="#6e6e71"/>
        <path id="Path_4506" data-name="Path 4506" d="M133.86,51.417a5.57,5.57,0,0,1,1.234-.369,7.876,7.876,0,0,1,1.494-.137,3.405,3.405,0,0,1,1.131.162,1.625,1.625,0,0,1,1.1,1.176,3.636,3.636,0,0,1,.111.936q0,.572-.039,1.149t-.046,1.137c0,.373.007.733.033,1.084a4.065,4.065,0,0,0,.2.994h-1.377l-.273-.9h-.065a2.31,2.31,0,0,1-.721.695,2.18,2.18,0,0,1-1.189.293,2.335,2.335,0,0,1-.818-.137,1.747,1.747,0,0,1-1.026-.987,1.983,1.983,0,0,1-.144-.773,1.8,1.8,0,0,1,.267-1.007,1.932,1.932,0,0,1,.766-.663,3.8,3.8,0,0,1,1.195-.351,8.479,8.479,0,0,1,1.553-.057,1.691,1.691,0,0,0-.1-1.046q-.2-.319-.871-.319a5.952,5.952,0,0,0-1.071.1,3.94,3.94,0,0,0-.929.272ZM136,56.251a1.294,1.294,0,0,0,.805-.228,1.571,1.571,0,0,0,.442-.487v-.844a4.576,4.576,0,0,0-.773-.014,2.939,2.939,0,0,0-.656.117,1.094,1.094,0,0,0-.455.261.581.581,0,0,0-.169.428.735.735,0,0,0,.215.565.829.829,0,0,0,.591.2" fill="#6e6e71"/>
        <path id="Path_4507" data-name="Path 4507" d="M143.032,55.743a.484.484,0,0,0-.221-.416,2.678,2.678,0,0,0-.545-.285q-.326-.13-.715-.266a2.7,2.7,0,0,1-.715-.378,2.058,2.058,0,0,1-.545-.61,2.171,2.171,0,0,1,.351-2.423,2.412,2.412,0,0,1,1.649-.507,5.308,5.308,0,0,1,1.339.157,3.848,3.848,0,0,1,.935.35l-.377,1.222q-.3-.119-.754-.247a3.322,3.322,0,0,0-.921-.131c-.5,0-.754.2-.754.585a.428.428,0,0,0,.221.376,2.855,2.855,0,0,0,.545.267q.326.125.715.266a3.164,3.164,0,0,1,.715.371,1.937,1.937,0,0,1,.545.591,1.784,1.784,0,0,1,.221.936,1.979,1.979,0,0,1-.63,1.552,2.761,2.761,0,0,1-1.891.565,4.61,4.61,0,0,1-1.292-.175,3.97,3.97,0,0,1-.981-.41l.468-1.26a4.449,4.449,0,0,0,.792.331,3.206,3.206,0,0,0,1.013.163,1.114,1.114,0,0,0,.6-.143.522.522,0,0,0,.228-.481" fill="#6e6e71"/>
        <path id="Path_4508" data-name="Path 4508" d="M148.19,54.692l.234,1.014h.078l.169-1.028.987-3.637H151.4L149.424,56.9c-.164.486-.323.929-.473,1.332a6.153,6.153,0,0,1-.5,1.046,2.37,2.37,0,0,1-.6.682,1.311,1.311,0,0,1-.786.24,2.26,2.26,0,0,1-1.078-.22l.311-1.352a1.042,1.042,0,0,0,.39.077.853.853,0,0,0,.578-.252,1.723,1.723,0,0,0,.422-.916l-2.715-6.5h2.027Z" fill="#6e6e71"/>
        <rect id="Rectangle_2222" data-name="Rectangle 2222" width="3.261" height="1.494" transform="translate(151.996 53.054)" fill="#6e6e71"/>
        <path id="Path_4509" data-name="Path 4509" d="M156.036,51.041h.9V49.82l1.688-.48v1.7h1.586V52.47h-1.586v2.494a2.474,2.474,0,0,0,.137.969.513.513,0,0,0,.513.291,1.686,1.686,0,0,0,.448-.052,3.037,3.037,0,0,0,.423-.155l.3,1.3a4.253,4.253,0,0,1-.82.287,3.938,3.938,0,0,1-.948.117,1.706,1.706,0,0,1-1.318-.461,2.215,2.215,0,0,1-.422-1.514V52.47h-.9Z" fill="#6e6e71"/>
        <path id="Path_4510" data-name="Path 4510" d="M160.869,54.289a3.656,3.656,0,0,1,.806-2.54,2.9,2.9,0,0,1,2.26-.89,3.381,3.381,0,0,1,1.351.247,2.528,2.528,0,0,1,.949.695,2.987,2.987,0,0,1,.565,1.085,4.96,4.96,0,0,1,.188,1.4,3.674,3.674,0,0,1-.8,2.54,2.871,2.871,0,0,1-2.254.89,3.384,3.384,0,0,1-1.351-.247,2.578,2.578,0,0,1-.954-.695,2.909,2.909,0,0,1-.572-1.085,4.914,4.914,0,0,1-.189-1.4m1.741,0a3.771,3.771,0,0,0,.078.792,2.2,2.2,0,0,0,.234.637,1.129,1.129,0,0,0,.409.422,1.164,1.164,0,0,0,.6.149,1.11,1.11,0,0,0,.988-.48,2.774,2.774,0,0,0,.324-1.52,3.058,3.058,0,0,0-.3-1.449,1.058,1.058,0,0,0-1.014-.551,1.146,1.146,0,0,0-.974.468,2.591,2.591,0,0,0-.351,1.532" fill="#6e6e71"/>
        <rect id="Rectangle_2223" data-name="Rectangle 2223" width="3.261" height="1.494" transform="translate(168.119 53.054)" fill="#6e6e71"/>
        <path id="Path_4511" data-name="Path 4511" d="M172.873,48.443h5.391v1.584h-3.612v2.249h3.327V53.86h-3.327v3.677h-1.779Z" fill="#6e6e71"/>
        <path id="Path_4512" data-name="Path 4512" d="M179.121,54.289a3.656,3.656,0,0,1,.806-2.54,2.9,2.9,0,0,1,2.26-.89,3.389,3.389,0,0,1,1.352.247,2.544,2.544,0,0,1,.949.695,2.986,2.986,0,0,1,.564,1.085,4.96,4.96,0,0,1,.188,1.4,3.674,3.674,0,0,1-.8,2.54,2.871,2.871,0,0,1-2.254.89,3.375,3.375,0,0,1-1.35-.247,2.574,2.574,0,0,1-.955-.695,2.909,2.909,0,0,1-.572-1.085,4.914,4.914,0,0,1-.189-1.4m1.741,0a3.77,3.77,0,0,0,.079.792,2.168,2.168,0,0,0,.234.637,1.114,1.114,0,0,0,.409.422,1.16,1.16,0,0,0,.6.149,1.109,1.109,0,0,0,.988-.48,2.774,2.774,0,0,0,.324-1.52,3.058,3.058,0,0,0-.3-1.449,1.057,1.057,0,0,0-1.014-.551,1.146,1.146,0,0,0-.974.468,2.591,2.591,0,0,0-.351,1.532" fill="#6e6e71"/>
        <path id="Path_4513" data-name="Path 4513" d="M188.151,55.354a1.418,1.418,0,0,0,.116.663.4.4,0,0,0,.377.207,1.58,1.58,0,0,0,.676-.143l.181,1.325a3.123,3.123,0,0,1-.637.208,3.729,3.729,0,0,1-.882.1,1.654,1.654,0,0,1-1.131-.344,1.455,1.455,0,0,1-.39-1.138V48.442h1.69Z" fill="#6e6e71"/>
        <path id="Path_4514" data-name="Path 4514" d="M191.97,55.354a1.416,1.416,0,0,0,.117.663.4.4,0,0,0,.376.207,1.573,1.573,0,0,0,.676-.143l.181,1.325a3.1,3.1,0,0,1-.635.208,3.758,3.758,0,0,1-.884.1,1.657,1.657,0,0,1-1.131-.344,1.455,1.455,0,0,1-.389-1.138V48.442h1.689Z" fill="#6e6e71"/>
        <path id="Path_4515" data-name="Path 4515" d="M193.736,54.289a3.656,3.656,0,0,1,.806-2.54,2.9,2.9,0,0,1,2.26-.89,3.389,3.389,0,0,1,1.352.247,2.544,2.544,0,0,1,.949.695,2.986,2.986,0,0,1,.564,1.085,4.96,4.96,0,0,1,.188,1.4,3.674,3.674,0,0,1-.8,2.54,2.871,2.871,0,0,1-2.254.89,3.376,3.376,0,0,1-1.35-.247,2.574,2.574,0,0,1-.955-.695,2.909,2.909,0,0,1-.572-1.085,4.913,4.913,0,0,1-.189-1.4m1.741,0a3.769,3.769,0,0,0,.079.792,2.168,2.168,0,0,0,.234.637,1.114,1.114,0,0,0,.409.422,1.16,1.16,0,0,0,.6.149,1.109,1.109,0,0,0,.988-.48,2.774,2.774,0,0,0,.324-1.52,3.058,3.058,0,0,0-.3-1.449,1.057,1.057,0,0,0-1.014-.551,1.146,1.146,0,0,0-.974.468,2.591,2.591,0,0,0-.351,1.532" fill="#6e6e71"/>
        <path id="Path_4516" data-name="Path 4516" d="M205.612,51.041l1.181,3.325.234,1.079h.052l.182-1.091.832-3.313h1.546l-2,6.561h-1.246l-1.313-3.637-.169-.819h-.065l-.156.831L203.443,57.6h-1.287l-2.091-6.561H201.9l.949,3.261L203,55.458h.065l.221-1.169,1.078-3.248Z" fill="#6e6e71"/>
        <rect id="Rectangle_2224" data-name="Rectangle 2224" width="1.78" height="9.092" transform="translate(136.199 64.033)" fill="#6e6e71"/>
        <path id="Path_4517" data-name="Path 4517" d="M143.656,73.125V69.437a2.171,2.171,0,0,0-.228-1.144.847.847,0,0,0-.772-.35,1.215,1.215,0,0,0-.812.279,1.544,1.544,0,0,0-.474.694v4.209h-1.689v-6.5h1.338l.2.857h.051a2.847,2.847,0,0,1,.793-.727,2.367,2.367,0,0,1,1.273-.31,2.622,2.622,0,0,1,.858.129,1.463,1.463,0,0,1,.636.429,1.967,1.967,0,0,1,.39.812,5.271,5.271,0,0,1,.13,1.266v4.04Z" fill="#6e6e71"/>
        <path id="Path_4518" data-name="Path 4518" d="M149.45,71.332a.482.482,0,0,0-.221-.414,2.493,2.493,0,0,0-.545-.285c-.217-.088-.455-.178-.715-.268a2.646,2.646,0,0,1-.715-.378,2.054,2.054,0,0,1-.545-.609,2.173,2.173,0,0,1,.351-2.424,2.417,2.417,0,0,1,1.649-.505,5.312,5.312,0,0,1,1.339.155,3.89,3.89,0,0,1,.935.35l-.377,1.223c-.2-.079-.45-.161-.754-.248a3.321,3.321,0,0,0-.921-.13q-.755,0-.754.584a.431.431,0,0,0,.221.378,2.857,2.857,0,0,0,.545.265c.217.084.455.172.715.268a3.2,3.2,0,0,1,.715.369,1.952,1.952,0,0,1,.545.592,1.784,1.784,0,0,1,.221.936,1.975,1.975,0,0,1-.63,1.551,2.756,2.756,0,0,1-1.891.566,4.685,4.685,0,0,1-1.292-.174,3.967,3.967,0,0,1-.981-.412l.468-1.26a4.443,4.443,0,0,0,.792.332,3.236,3.236,0,0,0,1.013.164,1.113,1.113,0,0,0,.6-.144.525.525,0,0,0,.228-.482" fill="#6e6e71"/>
        <path id="Path_4519" data-name="Path 4519" d="M151.568,66.63h.9V65.409l1.688-.479v1.7h1.586v1.429h-1.586v2.5a2.463,2.463,0,0,0,.137.967.515.515,0,0,0,.513.293,1.6,1.6,0,0,0,.448-.054,2.8,2.8,0,0,0,.423-.155l.3,1.3a4.19,4.19,0,0,1-.82.285,3.841,3.841,0,0,1-.948.118,1.706,1.706,0,0,1-1.318-.462,2.215,2.215,0,0,1-.422-1.514V68.059h-.9Z" fill="#6e6e71"/>
        <path id="Path_4520" data-name="Path 4520" d="M160.363,68.214a2.255,2.255,0,0,0-.727-.141,1.188,1.188,0,0,0-.761.24,1.158,1.158,0,0,0-.409.617v4.195h-1.688v-6.5h1.311l.195.857h.052a1.768,1.768,0,0,1,.6-.739,1.5,1.5,0,0,1,.883-.259,2.433,2.433,0,0,1,.767.141Z" fill="#6e6e71"/>
        <path id="Path_4521" data-name="Path 4521" d="M162.961,66.63v3.691a2.562,2.562,0,0,0,.188,1.141.757.757,0,0,0,.734.353,1.145,1.145,0,0,0,.8-.288,1.758,1.758,0,0,0,.475-.7v-4.2h1.688v4.522A10.3,10.3,0,0,0,166.9,72.2a6.4,6.4,0,0,0,.156.928H165.78l-.3-.962h-.052a2.428,2.428,0,0,1-.831.821,2.4,2.4,0,0,1-1.261.324,2.832,2.832,0,0,1-.883-.13,1.477,1.477,0,0,1-.65-.428,2.012,2.012,0,0,1-.4-.807,4.991,4.991,0,0,1-.136-1.274V66.63Z" fill="#6e6e71"/>
        <path id="Path_4522" data-name="Path 4522" d="M172.926,72.722a2.842,2.842,0,0,1-.943.437,4.356,4.356,0,0,1-1.136.149,3.11,3.11,0,0,1-1.318-.248,2.233,2.233,0,0,1-.878-.693,2.892,2.892,0,0,1-.487-1.086,6.178,6.178,0,0,1-.149-1.4,3.873,3.873,0,0,1,.74-2.54,2.647,2.647,0,0,1,2.157-.888,4.636,4.636,0,0,1,1.15.116,4,4,0,0,1,.785.3l-.4,1.379a3.559,3.559,0,0,0-.592-.223,2.687,2.687,0,0,0-.668-.076,1.275,1.275,0,0,0-1.066.46,2.391,2.391,0,0,0-.363,1.474,3.029,3.029,0,0,0,.09.767,1.89,1.89,0,0,0,.273.612,1.288,1.288,0,0,0,.474.409,1.5,1.5,0,0,0,.682.149A2.1,2.1,0,0,0,172,71.7a2.531,2.531,0,0,0,.533-.268Z" fill="#6e6e71"/>
        <path id="Path_4523" data-name="Path 4523" d="M173.275,66.63h.9V65.409l1.688-.479v1.7h1.586v1.429H175.86v2.5a2.481,2.481,0,0,0,.137.967.516.516,0,0,0,.513.293,1.593,1.593,0,0,0,.448-.054,2.762,2.762,0,0,0,.423-.155l.3,1.3a4.2,4.2,0,0,1-.819.285,3.849,3.849,0,0,1-.949.118,1.706,1.706,0,0,1-1.318-.462,2.215,2.215,0,0,1-.422-1.514V68.059h-.9Z" fill="#6e6e71"/>
        <path id="Path_4524" data-name="Path 4524" d="M178.4,64.8a.859.859,0,0,1,.279-.646,1.075,1.075,0,0,1,.773-.265,1.176,1.176,0,0,1,.8.265.827.827,0,0,1,.3.646.787.787,0,0,1-.3.629,1.212,1.212,0,0,1-.8.253,1.106,1.106,0,0,1-.773-.253.816.816,0,0,1-.279-.629m.247,1.83h1.689v6.5h-1.689Z" fill="#6e6e71"/>
        <path id="Path_4525" data-name="Path 4525" d="M181.668,69.878a3.659,3.659,0,0,1,.805-2.54,2.9,2.9,0,0,1,2.261-.888,3.4,3.4,0,0,1,1.351.245,2.53,2.53,0,0,1,.948.7,2.977,2.977,0,0,1,.566,1.086,4.936,4.936,0,0,1,.188,1.4,3.672,3.672,0,0,1-.8,2.54,2.868,2.868,0,0,1-2.254.891,3.371,3.371,0,0,1-1.352-.248,2.562,2.562,0,0,1-.954-.694,2.922,2.922,0,0,1-.571-1.085,4.886,4.886,0,0,1-.189-1.4m1.741,0a3.693,3.693,0,0,0,.078.792,2.157,2.157,0,0,0,.234.637,1.115,1.115,0,0,0,.408.423,1.178,1.178,0,0,0,.6.15,1.11,1.11,0,0,0,.987-.482,2.762,2.762,0,0,0,.325-1.52,3.058,3.058,0,0,0-.3-1.449,1.06,1.06,0,0,0-1.014-.55,1.146,1.146,0,0,0-.974.468,2.586,2.586,0,0,0-.351,1.531" fill="#6e6e71"/>
        <path id="Path_4526" data-name="Path 4526" d="M192.932,73.125V69.437a2.183,2.183,0,0,0-.227-1.144.849.849,0,0,0-.772-.35,1.212,1.212,0,0,0-.812.279,1.539,1.539,0,0,0-.475.694v4.209h-1.689v-6.5h1.338l.2.857h.051a2.838,2.838,0,0,1,.794-.727,2.362,2.362,0,0,1,1.273-.31,2.612,2.612,0,0,1,.857.129,1.466,1.466,0,0,1,.637.429,1.967,1.967,0,0,1,.389.812,5.271,5.271,0,0,1,.13,1.266v4.04Z" fill="#6e6e71"/>
        <path id="Path_4527" data-name="Path 4527" d="M198.725,71.332a.483.483,0,0,0-.22-.414,2.54,2.54,0,0,0-.545-.285c-.218-.088-.456-.178-.715-.268a2.617,2.617,0,0,1-.715-.378,2.027,2.027,0,0,1-.545-.609,2.168,2.168,0,0,1,.351-2.424,2.415,2.415,0,0,1,1.649-.505,5.3,5.3,0,0,1,1.338.155,3.883,3.883,0,0,1,.936.35l-.378,1.223c-.2-.079-.45-.161-.753-.248a3.323,3.323,0,0,0-.922-.13q-.754,0-.754.584a.431.431,0,0,0,.221.378,2.839,2.839,0,0,0,.546.265c.216.084.454.172.715.268a3.214,3.214,0,0,1,.714.369,1.968,1.968,0,0,1,.546.592,1.794,1.794,0,0,1,.22.936,1.975,1.975,0,0,1-.63,1.551,2.755,2.755,0,0,1-1.891.566,4.69,4.69,0,0,1-1.292-.174,3.975,3.975,0,0,1-.98-.412l.467-1.26a4.457,4.457,0,0,0,.793.332,3.23,3.23,0,0,0,1.012.164,1.117,1.117,0,0,0,.6-.144.526.526,0,0,0,.227-.482" fill="#6e6e71"/>
        <path id="Path_4528" data-name="Path 4528" d="M275.833,47.148a.849.849,0,0,0-.3-.675,3.313,3.313,0,0,0-.767-.474c-.308-.144-.64-.29-1-.443a5.028,5.028,0,0,1-1-.558,2.856,2.856,0,0,1-.765-.824,2.348,2.348,0,0,1-.306-1.261,2.76,2.76,0,0,1,.221-1.15,2.17,2.17,0,0,1,.629-.812,2.739,2.739,0,0,1,.968-.481,4.68,4.68,0,0,1,1.248-.155,7.748,7.748,0,0,1,1.494.137,3.782,3.782,0,0,1,1.156.4l-.558,1.493a3.2,3.2,0,0,0-.857-.331,4.911,4.911,0,0,0-1.235-.15,1.581,1.581,0,0,0-.956.248.784.784,0,0,0-.33.663.816.816,0,0,0,.3.648,3.439,3.439,0,0,0,.767.481q.461.222,1,.455a5.394,5.394,0,0,1,1,.566,2.885,2.885,0,0,1,.766.817,2.25,2.25,0,0,1,.307,1.215,3.016,3.016,0,0,1-.241,1.254,2.387,2.387,0,0,1-.675.878,2.9,2.9,0,0,1-1.053.519,5.169,5.169,0,0,1-1.358.169,7.231,7.231,0,0,1-1.714-.182,5.194,5.194,0,0,1-1.091-.364l.571-1.519a3.114,3.114,0,0,0,.37.167,4.554,4.554,0,0,0,.514.17,5.606,5.606,0,0,0,.6.129,4.02,4.02,0,0,0,.657.052,2.283,2.283,0,0,0,1.214-.266.892.892,0,0,0,.421-.812" fill="#6e6e71"/>
        <path id="Path_4529" data-name="Path 4529" d="M278.445,46.343a3.661,3.661,0,0,1,.8-2.54,2.9,2.9,0,0,1,2.261-.89,3.384,3.384,0,0,1,1.351.247,2.54,2.54,0,0,1,.95.695,2.986,2.986,0,0,1,.564,1.085,4.96,4.96,0,0,1,.188,1.4,3.674,3.674,0,0,1-.8,2.54,2.871,2.871,0,0,1-2.254.89,3.375,3.375,0,0,1-1.35-.247,2.586,2.586,0,0,1-.956-.695,2.922,2.922,0,0,1-.571-1.085,4.949,4.949,0,0,1-.189-1.4m1.741,0a3.64,3.64,0,0,0,.079.792,2.167,2.167,0,0,0,.234.637,1.114,1.114,0,0,0,.409.422,1.16,1.16,0,0,0,.6.149,1.106,1.106,0,0,0,.987-.48,2.763,2.763,0,0,0,.326-1.52,3.057,3.057,0,0,0-.3-1.449,1.057,1.057,0,0,0-1.014-.551,1.146,1.146,0,0,0-.974.468,2.592,2.592,0,0,0-.351,1.532" fill="#6e6e71"/>
        <path id="Path_4530" data-name="Path 4530" d="M284.98,43.1h.9v-.364a2.548,2.548,0,0,1,.52-1.786,1.966,1.966,0,0,1,1.505-.552,5.227,5.227,0,0,1,1.729.246l-.325,1.352a2.945,2.945,0,0,0-.527-.137,3.439,3.439,0,0,0-.474-.032.871.871,0,0,0-.408.078.48.48,0,0,0-.222.241,1.326,1.326,0,0,0-.091.4c-.012.161-.019.346-.019.553h1.428v1.429h-1.428v5.067h-1.688V44.524h-.9Z" fill="#6e6e71"/>
        <path id="Path_4531" data-name="Path 4531" d="M288.968,43.1h.9V41.874l1.688-.48v1.7h1.585v1.429h-1.585v2.494a2.455,2.455,0,0,0,.137.969.513.513,0,0,0,.513.291,1.676,1.676,0,0,0,.448-.052,2.939,2.939,0,0,0,.422-.155l.3,1.3a4.256,4.256,0,0,1-.818.287,3.958,3.958,0,0,1-.949.117,1.706,1.706,0,0,1-1.318-.461,2.215,2.215,0,0,1-.422-1.514V44.524h-.9Z" fill="#6e6e71"/>
        <path id="Path_4532" data-name="Path 4532" d="M294.113,48.759a.884.884,0,0,1,.292-.7,1.044,1.044,0,0,1,.72-.26,1.068,1.068,0,0,1,.857.363,1.424,1.424,0,0,1,.313.962,2.512,2.512,0,0,1-.182,1.006,2.393,2.393,0,0,1-.448.7,2.243,2.243,0,0,1-.571.441,3.362,3.362,0,0,1-.552.241l-.494-.7a1.481,1.481,0,0,0,.609-.466,1.238,1.238,0,0,0,.288-.689.724.724,0,0,1-.567-.182.875.875,0,0,1-.265-.715" fill="#6e6e71"/>
        <path id="Path_4533" data-name="Path 4533" d="M242.875,60.438l-.713-1.429H242.1l.207,1.429V65.18h-1.689V56.022h1.3l3.443,4.845.688,1.389h.067l-.209-1.389V56.086h1.689v9.159h-1.3Z" fill="#6e6e71"/>
        <path id="Path_4534" data-name="Path 4534" d="M249.071,59.061a5.58,5.58,0,0,1,1.235-.369,7.886,7.886,0,0,1,1.495-.137,3.4,3.4,0,0,1,1.13.162,1.62,1.62,0,0,1,1.1,1.176,3.68,3.68,0,0,1,.111.936c0,.381-.012.764-.038,1.149s-.042.765-.046,1.137.007.733.032,1.084a3.973,3.973,0,0,0,.195.994h-1.376l-.274-.9h-.065a2.31,2.31,0,0,1-.721.695,2.18,2.18,0,0,1-1.189.293,2.344,2.344,0,0,1-.819-.137,1.755,1.755,0,0,1-1.026-.987,1.983,1.983,0,0,1-.142-.773,1.811,1.811,0,0,1,.266-1.007,1.935,1.935,0,0,1,.767-.663,3.8,3.8,0,0,1,1.195-.351,8.472,8.472,0,0,1,1.552-.057,1.676,1.676,0,0,0-.1-1.046q-.195-.32-.87-.319a5.935,5.935,0,0,0-1.071.1,3.921,3.921,0,0,0-.93.272Zm2.146,4.834a1.29,1.29,0,0,0,.8-.228,1.571,1.571,0,0,0,.442-.487v-.844a4.565,4.565,0,0,0-.772-.014,2.949,2.949,0,0,0-.657.117,1.09,1.09,0,0,0-.454.261.577.577,0,0,0-.169.428.731.731,0,0,0,.214.565.833.833,0,0,0,.592.2" fill="#6e6e71"/>
        <path id="Path_4535" data-name="Path 4535" d="M254.88,58.685h.9V57.464l1.688-.48v1.7h1.585v1.429h-1.585v2.494a2.455,2.455,0,0,0,.137.969.513.513,0,0,0,.513.291,1.684,1.684,0,0,0,.449-.052,2.975,2.975,0,0,0,.421-.155l.3,1.3a4.255,4.255,0,0,1-.818.287,3.952,3.952,0,0,1-.949.117A1.706,1.706,0,0,1,256.2,64.9a2.215,2.215,0,0,1-.422-1.514V60.114h-.9Z" fill="#6e6e71"/>
        <path id="Path_4536" data-name="Path 4536" d="M261.714,58.685v3.689a2.535,2.535,0,0,0,.189,1.143.752.752,0,0,0,.733.351,1.145,1.145,0,0,0,.8-.286,1.748,1.748,0,0,0,.475-.7v-4.2H265.6v4.521c0,.355.017.7.051,1.046a6.551,6.551,0,0,0,.156.929h-1.273l-.3-.962h-.052a2.415,2.415,0,0,1-.831.819,2.384,2.384,0,0,1-1.261.325,2.8,2.8,0,0,1-.883-.13,1.439,1.439,0,0,1-.649-.429,1.989,1.989,0,0,1-.4-.806,4.983,4.983,0,0,1-.136-1.273v-4.04Z" fill="#6e6e71"/>
        <path id="Path_4537" data-name="Path 4537" d="M270.665,60.269a2.237,2.237,0,0,0-.727-.142,1.2,1.2,0,0,0-.762.239,1.163,1.163,0,0,0-.408.618v4.2h-1.689V58.685h1.311l.2.857h.052a1.771,1.771,0,0,1,.6-.74,1.507,1.507,0,0,1,.882-.26,2.431,2.431,0,0,1,.767.143Z" fill="#6e6e71"/>
        <path id="Path_4538" data-name="Path 4538" d="M271.6,59.061a5.58,5.58,0,0,1,1.235-.369,7.886,7.886,0,0,1,1.495-.137,3.4,3.4,0,0,1,1.13.162,1.62,1.62,0,0,1,1.1,1.176,3.68,3.68,0,0,1,.111.936c0,.381-.012.764-.038,1.149s-.042.765-.046,1.137.007.733.032,1.084a3.974,3.974,0,0,0,.195.994h-1.376l-.274-.9h-.065a2.31,2.31,0,0,1-.721.695,2.18,2.18,0,0,1-1.189.293,2.345,2.345,0,0,1-.819-.137,1.755,1.755,0,0,1-1.026-.987,1.984,1.984,0,0,1-.142-.773,1.812,1.812,0,0,1,.266-1.007,1.935,1.935,0,0,1,.767-.663,3.8,3.8,0,0,1,1.195-.351,8.472,8.472,0,0,1,1.552-.057,1.676,1.676,0,0,0-.1-1.046q-.195-.32-.87-.319a5.935,5.935,0,0,0-1.071.1,3.921,3.921,0,0,0-.93.272Zm2.146,4.834a1.285,1.285,0,0,0,.8-.228,1.563,1.563,0,0,0,.443-.487v-.844a4.565,4.565,0,0,0-.772-.014,2.949,2.949,0,0,0-.657.117,1.09,1.09,0,0,0-.454.261.577.577,0,0,0-.169.428.731.731,0,0,0,.214.565.833.833,0,0,0,.592.2" fill="#6e6e71"/>
        <path id="Path_4539" data-name="Path 4539" d="M279.824,63a1.4,1.4,0,0,0,.117.663.4.4,0,0,0,.376.207,1.831,1.831,0,0,0,.306-.026,1.808,1.808,0,0,0,.37-.117l.181,1.325a3.14,3.14,0,0,1-.635.208,3.758,3.758,0,0,1-.884.1,1.656,1.656,0,0,1-1.131-.344,1.455,1.455,0,0,1-.39-1.138V56.086h1.69Z" fill="#6e6e71"/>
        <rect id="Rectangle_2225" data-name="Rectangle 2225" width="3.261" height="1.494" transform="translate(281.862 60.698)" fill="#6e6e71"/>
        <path id="Path_4540" data-name="Path 4540" d="M286.617,56.087h5.392v1.584H288.4V59.92h3.326V61.5H288.4v3.677h-1.78Z" fill="#6e6e71"/>
        <path id="Path_4541" data-name="Path 4541" d="M298.373,64.622a3.316,3.316,0,0,1-1.057.526,4.678,4.678,0,0,1-1.424.214,2.762,2.762,0,0,1-2.3-.916,3.938,3.938,0,0,1-.727-2.514,3.592,3.592,0,0,1,.819-2.572,3.027,3.027,0,0,1,2.3-.857,3.6,3.6,0,0,1,.961.129,2.274,2.274,0,0,1,.832.429,2.141,2.141,0,0,1,.585.806,3.158,3.158,0,0,1,.22,1.26,5.545,5.545,0,0,1-.033.584c-.021.209-.055.424-.1.65h-3.9a1.923,1.923,0,0,0,.422,1.235,1.627,1.627,0,0,0,1.242.416,2.629,2.629,0,0,0,.954-.164,2.572,2.572,0,0,0,.643-.331Zm-2.416-4.769a1.183,1.183,0,0,0-.981.4,1.958,1.958,0,0,0-.382,1.058h2.416a1.635,1.635,0,0,0-.214-1.078.958.958,0,0,0-.839-.378" fill="#6e6e71"/>
        <path id="Path_4542" data-name="Path 4542" d="M304.908,64.622a3.312,3.312,0,0,1-1.058.526,4.672,4.672,0,0,1-1.423.214,2.761,2.761,0,0,1-2.3-.916,3.938,3.938,0,0,1-.728-2.514,3.6,3.6,0,0,1,.819-2.572,3.031,3.031,0,0,1,2.3-.857,3.589,3.589,0,0,1,.962.129,2.247,2.247,0,0,1,.831.429,2.131,2.131,0,0,1,.586.806,3.139,3.139,0,0,1,.221,1.26,5.307,5.307,0,0,1-.034.584c-.021.209-.054.424-.1.65h-3.9a1.918,1.918,0,0,0,.423,1.235,1.623,1.623,0,0,0,1.24.416,2.633,2.633,0,0,0,.956-.164,2.572,2.572,0,0,0,.643-.331Zm-2.416-4.769a1.178,1.178,0,0,0-.981.4,1.959,1.959,0,0,0-.384,1.058h2.417a1.629,1.629,0,0,0-.215-1.078.954.954,0,0,0-.837-.378" fill="#6e6e71"/>
        <path id="Path_4543" data-name="Path 4543" d="M308.054,63a1.4,1.4,0,0,0,.117.663.4.4,0,0,0,.376.207,1.832,1.832,0,0,0,.306-.026,1.808,1.808,0,0,0,.37-.117l.181,1.325a3.139,3.139,0,0,1-.635.208,3.758,3.758,0,0,1-.884.1,1.656,1.656,0,0,1-1.131-.344,1.455,1.455,0,0,1-.39-1.138V56.086h1.69Z" fill="#6e6e71"/>
        <path id="Path_4544" data-name="Path 4544" d="M310.041,56.854a.859.859,0,0,1,.279-.645,1.078,1.078,0,0,1,.774-.266,1.174,1.174,0,0,1,.8.266.827.827,0,0,1,.3.645.791.791,0,0,1-.3.63,1.22,1.22,0,0,1-.8.252,1.118,1.118,0,0,1-.774-.252.82.82,0,0,1-.279-.63m.247,1.831h1.689v6.5h-1.689Z" fill="#6e6e71"/>
        <path id="Path_4545" data-name="Path 4545" d="M317.6,65.18V61.491a2.181,2.181,0,0,0-.227-1.143A.848.848,0,0,0,316.6,60a1.219,1.219,0,0,0-.812.279,1.536,1.536,0,0,0-.475.695V65.18h-1.689v-6.5h1.339l.194.857h.051a2.852,2.852,0,0,1,.794-.727,2.356,2.356,0,0,1,1.273-.312,2.638,2.638,0,0,1,.857.13,1.466,1.466,0,0,1,.637.429,1.961,1.961,0,0,1,.389.812,5.234,5.234,0,0,1,.13,1.267v4.04Z" fill="#6e6e71"/>
        <path id="Path_4546" data-name="Path 4546" d="M326.2,65.181a2.624,2.624,0,0,1-.765,2.084,3.153,3.153,0,0,1-2.144.67,6.617,6.617,0,0,1-1.475-.13,3.7,3.7,0,0,1-.812-.273l.351-1.338c.2.078.43.155.694.234a3.523,3.523,0,0,0,.981.117,1.513,1.513,0,0,0,1.2-.383,1.629,1.629,0,0,0,.318-1.073v-.415H324.5a1.892,1.892,0,0,1-1.611.611,2.25,2.25,0,0,1-1.877-.78,3.927,3.927,0,0,1-.617-2.443,3.742,3.742,0,0,1,.832-2.637,3.128,3.128,0,0,1,2.416-.9,8.644,8.644,0,0,1,1.487.117,6.324,6.324,0,0,1,1.071.274Zm-2.857-1.248a1.165,1.165,0,0,0,.76-.22,1.4,1.4,0,0,0,.409-.662V60.127a2.592,2.592,0,0,0-1-.169,1.2,1.2,0,0,0-1.015.487A2.624,2.624,0,0,0,322.134,62a2.72,2.72,0,0,0,.313,1.442,1,1,0,0,0,.9.493" fill="#6e6e71"/>
        <path id="Path_4547" data-name="Path 4547" d="M270.482,76.755l.169,1.611h.052l.182-1.636,1.585-5.054h1.17l1.559,5.079.18,1.611h.054l.194-1.636,1.1-5.054h1.806l-2.507,9.159h-1.195l-1.624-5.054-.221-1.39h-.065l-.221,1.4-1.61,5.041h-1.26l-2.5-9.159h1.936Z" fill="#6e6e71"/>
        <path id="Path_4548" data-name="Path 4548" d="M278.472,74.65a5.564,5.564,0,0,1,1.235-.369,7.861,7.861,0,0,1,1.494-.137,3.414,3.414,0,0,1,1.131.162,1.626,1.626,0,0,1,1.1,1.176,3.637,3.637,0,0,1,.11.936c0,.381-.012.764-.038,1.149s-.041.765-.046,1.137.007.733.033,1.084a4.074,4.074,0,0,0,.2.994H282.3l-.272-.9h-.065a2.336,2.336,0,0,1-.722.695,2.181,2.181,0,0,1-1.19.293,2.337,2.337,0,0,1-.817-.137,1.76,1.76,0,0,1-1.027-.987,2,2,0,0,1-.143-.773,1.8,1.8,0,0,1,.268-1.007,1.922,1.922,0,0,1,.765-.663,3.812,3.812,0,0,1,1.2-.351,8.475,8.475,0,0,1,1.552-.057,1.676,1.676,0,0,0-.1-1.046q-.2-.319-.87-.319a5.953,5.953,0,0,0-1.071.1,3.955,3.955,0,0,0-.929.272Zm2.144,4.834a1.3,1.3,0,0,0,.8-.228,1.575,1.575,0,0,0,.443-.487v-.844a4.591,4.591,0,0,0-.774-.014,2.939,2.939,0,0,0-.656.117,1.088,1.088,0,0,0-.455.261.58.58,0,0,0-.168.428.736.736,0,0,0,.214.565.829.829,0,0,0,.591.2" fill="#6e6e71"/>
        <path id="Path_4549" data-name="Path 4549" d="M284.136,74.274h.9V73.053l1.688-.48v1.7h1.585V75.7h-1.585V78.2a2.455,2.455,0,0,0,.137.969.513.513,0,0,0,.513.291,1.676,1.676,0,0,0,.448-.052,2.938,2.938,0,0,0,.422-.155l.3,1.3a4.255,4.255,0,0,1-.818.287,3.956,3.956,0,0,1-.948.117,1.707,1.707,0,0,1-1.319-.461,2.215,2.215,0,0,1-.422-1.514V75.7h-.9Z" fill="#6e6e71"/>
        <path id="Path_4550" data-name="Path 4550" d="M294.333,80.212a3.316,3.316,0,0,1-1.057.526,4.678,4.678,0,0,1-1.424.214,2.761,2.761,0,0,1-2.3-.916,3.938,3.938,0,0,1-.727-2.514,3.592,3.592,0,0,1,.819-2.572,3.027,3.027,0,0,1,2.3-.857,3.6,3.6,0,0,1,.961.129,2.274,2.274,0,0,1,.832.429,2.14,2.14,0,0,1,.585.806,3.176,3.176,0,0,1,.22,1.26,5.545,5.545,0,0,1-.033.584c-.021.209-.055.424-.1.65h-3.9a1.923,1.923,0,0,0,.422,1.235,1.627,1.627,0,0,0,1.242.416,2.629,2.629,0,0,0,.954-.164,2.572,2.572,0,0,0,.643-.331Zm-2.416-4.769a1.183,1.183,0,0,0-.981.4,1.958,1.958,0,0,0-.382,1.058h2.416a1.635,1.635,0,0,0-.214-1.078.958.958,0,0,0-.839-.378" fill="#6e6e71"/>
        <path id="Path_4551" data-name="Path 4551" d="M299.18,75.859a2.222,2.222,0,0,0-.727-.142,1.2,1.2,0,0,0-.76.239,1.164,1.164,0,0,0-.409.618v4.2H295.6V74.275h1.313l.194.857h.051a1.779,1.779,0,0,1,.6-.74,1.518,1.518,0,0,1,.885-.26,2.435,2.435,0,0,1,.765.143Z" fill="#6e6e71"/>
      </g>
    </g>
  </g>
</svg>