<?xml version="1.0" encoding="utf-8"?>
<!-- Generator: Adobe Illustrator 23.0.4, SVG Export Plug-In . SVG Version: 6.00 Build 0)  -->
<svg version="1.1" id="Layer_1" xmlns="http://www.w3.org/2000/svg" xmlns:xlink="http://www.w3.org/1999/xlink" x="0px" y="0px"
	 viewBox="0 0 528.83 153.1" style="enable-background:new 0 0 528.83 153.1;" xml:space="preserve">
<style type="text/css">
	.st0{fill:#194F90;}
	.st1{fill:#095540;}
</style>
<g>
	<path id="XMLID_24_" class="st0" d="M50.6,68.13c0,0,7.14,4.73,12.07,1.18c0,0,6.15-4.15,1.77-12.66c0,0-4.42-9.27-21.49-9.42
		c0,0-20.16-1.18-33.7,23.55c0,0-18.5,33.41,8.83,78.59c0,0-11.82-28.5-8.68-52.44c0,0,5.04-30.29,31.2-31.4
		C40.59,65.53,45.3,64.89,50.6,68.13z"/>
	<path id="XMLID_23_" class="st0" d="M71.57,73.13c0,0-7.68,3.79-7.1,9.83c0,0,0.49,7.4,10.04,7.9c0,0,10.23,0.86,18.97-13.81
		c0,0,11.18-16.82-3.35-40.98c0,0-19.53-32.81-72.33-31.98c0,0,30.58,4.15,49.67,18.93c0,0,23.63,19.62,11.39,42.77
		C78.86,65.8,77.04,70.19,71.57,73.13z"/>
	<path id="XMLID_22_" class="st0" d="M56.98,88.47c0,0,0.55-8.55-4.98-11.06c0,0-6.66-3.27-11.86,4.76c0,0-5.85,8.44,2.51,23.33
		c0,0,9.01,18.08,37.19,17.53c0,0,38.18-0.57,63.79-46.75c0,0-18.85,24.43-41.18,33.61c0,0-28.79,10.69-42.76-11.46
		C59.7,98.44,56.8,94.68,56.98,88.47z"/>
</g>
<g>
	<path class="st1" d="M171.94,39.14v33.52c0,0.83,0.19,1.47,0.57,1.9c0.38,0.43,1.05,0.78,2.02,1.05v1.29h-16.19v-1.29
		c0.97-0.27,1.64-0.62,2.02-1.05c0.38-0.43,0.57-1.06,0.57-1.9V25.98c0-0.81-0.19-1.43-0.57-1.86c-0.38-0.43-1.05-0.78-2.02-1.05
		v-1.29h18.74v1.29c-1.16,0.3-1.74,0.92-1.74,1.86c0,0.65,0.38,1.36,1.13,2.14l30.41,31.62V25.98c0-0.81-0.19-1.43-0.57-1.86
		c-0.38-0.43-1.05-0.78-2.02-1.05v-1.29h16.19v1.29c-0.97,0.27-1.64,0.62-2.02,1.05c-0.38,0.43-0.57,1.05-0.57,1.86v46.68
		c0,0.83,0.19,1.47,0.57,1.9c0.38,0.43,1.05,0.78,2.02,1.05v1.29h-17.36v-1.29c1.13-0.24,1.7-0.82,1.7-1.74
		c0-0.54-0.66-1.48-1.98-2.83L171.94,39.14z"/>
	<path class="st1" d="M260.36,20.81c9.62,0,17.24,2.6,22.87,7.79c5.95,5.44,8.93,12.46,8.93,21.08c0,5.28-1.43,10.2-4.28,14.78
		c-5.58,8.94-14.72,13.41-27.44,13.41c-9.54,0-17.12-2.6-22.75-7.79c-3.02-2.77-5.31-6.1-6.87-9.97c-1.37-3.42-2.06-7.01-2.06-10.78
		c0-5.52,1.41-10.57,4.24-15.14C238.42,25.43,247.54,20.97,260.36,20.81z M260.4,30.18c-5.26,0-9.63,1.56-13.14,4.68
		c-4.15,3.68-6.23,8.51-6.23,14.48s2.07,10.8,6.23,14.48c3.5,3.12,7.91,4.68,13.22,4.68c5.31,0,9.7-1.56,13.18-4.68
		c2.07-1.86,3.66-4.13,4.77-6.82c0.97-2.39,1.46-4.87,1.46-7.42c0-6.24-2.08-11.15-6.23-14.72
		C270.13,31.79,265.71,30.23,260.4,30.18z"/>
	<path class="st1" d="M315.42,54.41V72.7c0,0.81,0.19,1.43,0.59,1.88c0.39,0.44,1.06,0.79,2,1.03v1.29h-17.2v-1.29
		c0.97-0.27,1.64-0.62,2.02-1.05c0.38-0.43,0.57-1.05,0.57-1.86V26.02c0-0.83-0.19-1.47-0.57-1.9c-0.38-0.43-1.05-0.78-2.02-1.05
		v-1.29h34.48c4.2,0,7.53,0.24,9.99,0.73c2.46,0.48,4.61,1.33,6.44,2.54c2.13,1.4,3.71,3.3,4.76,5.69c1,2.32,1.49,4.79,1.49,7.43
		c0,8.99-4.99,14.25-14.98,15.79l10.7,15.22c1.88,2.67,3.26,4.38,4.14,5.15c0.87,0.77,1.94,1.19,3.21,1.27v1.29h-19.91v-1.29
		c1.37-0.22,2.06-0.7,2.06-1.45c0-0.48-0.63-1.66-1.89-3.51l-11.16-16.23H315.42z M315.42,45.32h18.58c2.75,0,4.68-0.08,5.81-0.24
		c1.13-0.16,2.17-0.5,3.11-1.01c2.05-1.1,3.07-3.1,3.07-5.98s-1.02-4.87-3.07-5.98c-0.97-0.54-2-0.88-3.09-1.03
		c-1.09-0.15-3.04-0.22-5.83-0.22h-18.58V45.32z"/>
	<path class="st1" d="M370.25,72.66V26.02c0-0.83-0.19-1.47-0.57-1.9c-0.38-0.43-1.05-0.78-2.02-1.05v-1.29h30.75
		c6.73,0,11.91,0.77,15.52,2.3c5.17,2.23,9,5.92,11.48,11.06c1.97,4.04,2.95,8.76,2.95,14.17c0,9.5-2.92,16.75-8.77,21.72
		c-2.45,2.1-5.32,3.6-8.61,4.5c-3.29,0.9-7.48,1.35-12.57,1.35h-30.75v-1.29c0.97-0.27,1.64-0.62,2.02-1.05
		C370.06,74.13,370.25,73.5,370.25,72.66z M382.29,67.81h15.12c4.82,0,8.45-0.66,10.87-1.98c5.2-2.83,7.8-8.33,7.8-16.52
		c0-5.92-1.4-10.46-4.2-13.61c-1.56-1.75-3.45-2.99-5.66-3.74c-2.21-0.74-5.15-1.11-8.81-1.11h-15.12V67.81z"/>
	<path class="st1" d="M439.59,72.66V25.98c0-0.81-0.19-1.43-0.57-1.86c-0.38-0.43-1.05-0.78-2.02-1.05v-1.29h17.2v1.29
		c-0.97,0.24-1.64,0.58-2.02,1.03c-0.38,0.44-0.57,1.07-0.57,1.88v46.68c0,0.83,0.19,1.47,0.59,1.92c0.39,0.44,1.06,0.79,2,1.03
		v1.29H437v-1.29c0.97-0.27,1.64-0.62,2.02-1.05C439.4,74.13,439.59,73.5,439.59,72.66z"/>
	<path class="st1" d="M517.52,57.96l7.67,11.49l-1.05,0.73c-0.75-0.7-1.37-1.05-1.86-1.05c-0.48,0-1.84,0.65-4.08,1.94
		c-4.63,2.67-8.53,4.47-11.69,5.4c-3.16,0.93-6.93,1.4-11.29,1.4c-8.7,0-15.83-2.06-21.4-6.18c-3.28-2.4-5.87-5.37-7.75-8.92
		c-2.18-4.06-3.27-8.55-3.27-13.45c0-6.68,1.95-12.48,5.86-17.4c5.87-7.4,14.74-11.1,26.61-11.1c4.36,0,8.1,0.46,11.23,1.37
		c3.12,0.92,7.03,2.72,11.71,5.41c2.23,1.27,3.59,1.9,4.08,1.9c0.48,0,1.1-0.35,1.86-1.05l1.05,0.73l-7.67,11.51l-1.09-0.72
		c0.05-0.43,0.08-0.79,0.08-1.09c0-0.78-0.34-1.51-1.01-2.19c-0.67-0.68-1.87-1.51-3.59-2.47c-4.76-2.68-9.81-4.02-15.14-4.02
		c-6.3,0-11.32,1.57-15.06,4.72c-4.42,3.69-6.62,8.5-6.62,14.44c0,5.94,2.21,10.76,6.62,14.44c3.74,3.15,8.76,4.72,15.06,4.72
		c5.33,0,10.38-1.35,15.14-4.04c1.72-0.97,2.92-1.8,3.59-2.48c0.67-0.69,1.01-1.42,1.01-2.2c0-0.3-0.03-0.65-0.08-1.05L517.52,57.96
		z"/>
</g>
<g>
	<path class="st1" d="M195.29,90.17c0-1-0.6-1.51-1.81-1.51v-1.51h12.64v1.51c-0.38,0-0.73,0.13-1.03,0.38
		c-0.3,0.25-0.45,0.63-0.45,1.13v38.03c0,0.5,0.15,0.88,0.45,1.13c0.3,0.25,0.64,0.38,1.03,0.38v1.51h-12.64v-1.51
		c1.2,0,1.81-0.5,1.81-1.51v-15.75h-26.43v15.75c0,0.5,0.15,0.88,0.45,1.13c0.3,0.25,0.64,0.38,1.03,0.38v1.51h-12.39v-1.51
		c1.04,0,1.56-0.5,1.56-1.51V90.17c0-1-0.52-1.51-1.56-1.51v-1.51h12.39v1.51c-0.38,0-0.73,0.13-1.03,0.38
		c-0.3,0.25-0.45,0.63-0.45,1.13v14.24h26.43V90.17z"/>
	<path class="st1" d="M294.44,128.19c0,1,0.6,1.51,1.81,1.51v1.51H283.6v-1.51c0.38,0,0.72-0.13,1.03-0.38
		c0.3-0.25,0.45-0.63,0.45-1.13V94.86h-13.54c-0.49,0-0.97,0.14-1.44,0.42c-0.47,0.28-0.7,0.81-0.7,1.59h-1.48V85.14h1.48
		c0,0.78,0.23,1.31,0.7,1.59c0.46,0.28,0.94,0.42,1.44,0.42h36.44c0.49,0,0.97-0.14,1.44-0.42c0.46-0.28,0.7-0.81,0.7-1.59h1.48
		v11.73h-1.48c0-0.78-0.23-1.31-0.7-1.59c-0.47-0.28-0.94-0.42-1.44-0.42h-13.54V128.19z"/>
	<path class="st1" d="M356.94,128.19c0,1,0.6,1.51,1.81,1.51v1.51H346.1v-1.51c0.38,0,0.72-0.13,1.03-0.38
		c0.3-0.25,0.45-0.63,0.45-1.13V94.86h-13.54c-0.49,0-0.97,0.14-1.44,0.42c-0.47,0.28-0.7,0.81-0.7,1.59h-1.48V85.14h1.48
		c0,0.78,0.23,1.31,0.7,1.59c0.46,0.28,0.94,0.42,1.44,0.42h36.44c0.49,0,0.97-0.14,1.44-0.42c0.46-0.28,0.7-0.81,0.7-1.59h1.48
		v11.73h-1.48c0-0.78-0.23-1.31-0.7-1.59c-0.47-0.28-0.94-0.42-1.44-0.42h-13.54V128.19z"/>
	<path class="st1" d="M389.69,88.66c-1.2,0-1.81,0.5-1.81,1.51v25.13c0,3.52,1.11,5.93,3.32,7.25c2.22,1.31,5.46,1.97,9.73,1.97
		c4.27,0,7.51-0.66,9.73-1.97c2.22-1.31,3.32-3.73,3.32-7.25V90.17c0-1-0.82-1.51-2.46-1.51v-1.51h13.13v1.51
		c-1.31,0-1.97,0.5-1.97,1.51v24.71c0,3.3-0.47,6.02-1.4,8.17c-0.93,2.15-2.33,3.87-4.19,5.15c-1.86,1.29-4.17,2.15-6.93,2.6
		c-2.76,0.45-5.95,0.67-9.56,0.67c-3.61,0-6.8-0.22-9.56-0.67c-2.76-0.45-5.08-1.31-6.94-2.6c-1.86-1.28-3.26-3-4.19-5.15
		c-0.93-2.15-1.4-4.87-1.4-8.17V90.17c0-1-0.77-1.51-2.3-1.51v-1.51h13.46V88.66z"/>
	<path class="st1" d="M456.01,87.15c2.52,0,4.95,0.21,7.3,0.63c2.35,0.42,4.43,1.09,6.24,2.01c1.81,0.92,3.26,2.12,4.35,3.6
		c1.09,1.48,1.64,3.31,1.64,5.49c0,2.63-0.79,4.65-2.38,6.07c-1.59,1.42-3.48,2.53-5.66,3.31v0.17c2.57,0.78,4.75,2.02,6.53,3.73
		c1.78,1.7,2.67,4.15,2.67,7.33c0,1.67-0.36,3.22-1.07,4.65c-0.71,1.42-1.76,2.67-3.16,3.73c-1.4,1.06-3.11,1.88-5.13,2.47
		c-2.02,0.59-4.32,0.88-6.89,0.88h-30.12v-1.51c1.53,0,2.3-0.5,2.3-1.51V90.17c0-1-0.77-1.51-2.3-1.51v-1.51H456.01z M457.65,104.41
		c2.46,0,4.5-0.32,6.12-0.96c1.61-0.64,2.42-2,2.42-4.06c0-2.07-0.81-3.42-2.42-4.06c-1.61-0.64-3.65-0.96-6.12-0.96h-15.68v10.05
		H457.65z M457.65,123.5c3.45,0,5.92-0.54,7.43-1.63c1.5-1.09,2.26-2.53,2.26-4.31c0-1.79-0.75-3.22-2.26-4.31
		c-1.51-1.09-3.98-1.63-7.43-1.63h-15.68v11.89H457.65z"/>
	<path class="st1" d="M486.46,117.39l0.82,0.42c0,0.5,0.11,0.95,0.33,1.34c0.38,0.67,1.14,1.33,2.26,1.97
		c1.12,0.64,2.41,1.21,3.86,1.72c1.45,0.5,2.97,0.91,4.56,1.21c1.59,0.31,3.01,0.46,4.27,0.46c0.93,0,2.13-0.07,3.61-0.21
		c1.48-0.14,2.93-0.43,4.35-0.88c1.42-0.45,2.65-1.06,3.69-1.84c1.04-0.78,1.56-1.81,1.56-3.1c0-1.28-0.48-2.23-1.44-2.85
		c-0.96-0.61-2.22-1.06-3.78-1.34c-1.56-0.28-3.34-0.46-5.33-0.54c-2-0.08-4.04-0.21-6.12-0.38c-2.08-0.17-4.12-0.45-6.12-0.84
		c-2-0.39-3.78-1.05-5.33-1.97c-1.56-0.92-2.82-2.18-3.78-3.77c-0.96-1.59-1.44-3.67-1.44-6.24c0-1.73,0.4-3.43,1.19-5.11
		c0.79-1.67,2.01-3.15,3.65-4.44c1.64-1.28,3.72-2.33,6.24-3.14c2.52-0.81,5.47-1.21,8.86-1.21c2.9,0,5.42,0.22,7.55,0.67
		c2.13,0.45,3.98,0.92,5.54,1.42c1.56,0.5,2.87,0.98,3.94,1.42c1.07,0.45,1.96,0.67,2.67,0.67c0.77,0,1.31-0.17,1.64-0.5l0.99,0.67
		l-5.66,10.47l-0.82-0.33c-0.11-0.78-0.33-1.42-0.66-1.93c-0.44-0.67-1.16-1.33-2.17-1.97c-1.01-0.64-2.2-1.21-3.57-1.72
		c-1.37-0.5-2.85-0.91-4.43-1.21c-1.59-0.31-3.17-0.46-4.76-0.46c-1.2,0-2.45,0.1-3.73,0.29c-1.29,0.2-2.45,0.49-3.49,0.88
		c-1.04,0.39-1.9,0.91-2.59,1.55c-0.68,0.64-1.03,1.44-1.03,2.39c0,1.34,0.48,2.34,1.44,3.02c0.96,0.67,2.22,1.17,3.78,1.51
		c1.56,0.33,3.34,0.56,5.33,0.67c2,0.11,4.03,0.25,6.12,0.42c2.08,0.17,4.12,0.46,6.12,0.88c2,0.42,3.78,1.09,5.33,2.01
		c1.56,0.92,2.82,2.16,3.78,3.73c0.96,1.56,1.44,3.6,1.44,6.11c0,2.9-0.75,5.28-2.26,7.12c-1.51,1.84-3.38,3.3-5.62,4.36
		c-2.24,1.06-4.67,1.77-7.26,2.14c-2.6,0.36-5.02,0.54-7.26,0.54c-3.12,0-5.73-0.18-7.84-0.54c-2.11-0.36-3.86-0.81-5.25-1.34
		c-1.4-0.53-2.5-1-3.32-1.42c-0.82-0.42-1.53-0.63-2.13-0.63c-0.38,0-0.74,0.22-1.07,0.67l-1.15-0.67L486.46,117.39z"/>
	<path class="st1" d="M239.22,86.03c7.71,0,13.82,2.08,18.33,6.25c4.77,4.36,7.16,9.99,7.16,16.89c0,4.23-1.14,8.18-3.43,11.85
		c-4.47,7.16-11.8,10.75-21.99,10.75c-7.64,0-13.72-2.08-18.23-6.25c-2.42-2.22-4.25-4.89-5.51-7.99c-1.1-2.74-1.65-5.62-1.65-8.64
		c0-4.42,1.13-8.47,3.4-12.14C221.63,89.73,228.94,86.15,239.22,86.03z M239.25,93.53c-4.21,0-7.72,1.25-10.53,3.75
		c-3.33,2.95-4.99,6.82-4.99,11.61c0,4.78,1.66,8.65,4.99,11.61c2.81,2.5,6.34,3.75,10.59,3.75c4.26,0,7.78-1.25,10.56-3.75
		c1.66-1.49,2.94-3.31,3.82-5.46c0.78-1.92,1.17-3.9,1.17-5.95c0-5-1.66-8.93-4.99-11.8C247.04,94.83,243.5,93.58,239.25,93.53z"/>
</g>
<g>
	<path class="st1" d="M519.44,83.39h-1.32v3.66h-0.7v-3.66h-1.32v-0.56h3.34V83.39z M524.95,87.05h-0.7v-3.53h-0.02l-1.39,3.53
		h-0.44l-1.39-3.53H521v3.53h-0.7v-4.23h1.08l1.26,3.21l1.24-3.21h1.07V87.05z"/>
</g>
</svg>
